inDegrees=yes
name=ik_imu_orientations_sensors
DataType=double
version=3
OpenSimVersion=4.4-2022-07-23-0e9fedc
endheader
time	r_x	r_y	r_z	t_x	t_y	t_z	sternoclavicular_r2	sternoclavicular_r3	unrotscap_r3	unrotscap_r2	acromioclavicular_r2	acromioclavicular_r3	acromioclavicular_r1	unrothum_r1	unrothum_r3	unrothum_r2	elv_angle	shoulder_elv	shoulder1_r2	shoulder_rot	elbow_flexion	pro_sup	deviation	flexion	wrist_hand_r1	wrist_hand_r3
8.833299999999999	-1.700253251875314	-46.81488382277536	-10.67430836598464	0	0	0	-16.17547087137475	6.851166020487844	-6.851166020487844	16.17547087137475	-3.275203817066704	26.46904517599947	11.89765364092028	-11.89765364092028	-26.46904517599947	3.275203817066704	59.19464063995401	66.84063891303894	-59.19464063995401	8.070059430935157	57.06536609330009	-6.243656721729708e-15	0.13089969	0	9.374987811387696	0
8.85	-1.78676771871099	-46.6276746485461	-10.82660422995541	0	0	0	-16.32284513804441	6.913586804162727	-6.913586804162727	16.32284513804441	-3.305044108244135	26.71020391278543	12.00605283339901	-12.00605283339901	-26.71020391278543	3.305044108244135	59.48384224642744	67.44962212112425	-59.48384224642744	8.351115996269776	54.82859373524331	-6.243656721729708e-15	0.13089969	0	9.374987811387696	0
8.8667	-1.877278980368756	-46.46798502761751	-10.99178692195087	0	0	0	-16.46612740111103	6.974274408243414	-6.974274408243414	16.46612740111103	-3.334055851929707	26.944666620189	12.11144220675386	-12.11144220675386	-26.944666620189	3.334055851929707	59.83199471045791	68.04169626131065	-59.83199471045789	8.635023115758971	52.6206222168552	-6.243656721729708e-15	0.13089969	0	9.374987811387696	0
8.8833	-1.943107013828845	-46.28578248978699	-11.12271379869731	0	0	0	-16.60439485532774	7.032837975981357	-7.032837975981357	16.60439485532774	-3.36205219883223	27.17092324796416	12.21314300379177	-12.21314300379177	-27.17092324796416	3.36205219883223	60.23643552313417	68.613048097323	-60.23643552313417	8.930731564720881	50.37353795591689	-6.243656721729708e-15	0.13089969	0	9.374987811387696	0
8.9	-2.022121389605638	-46.08233026781439	-11.21553981457041	0	0	0	-16.71525815609824	7.079794437725055	-7.079794437725055	16.71525815609824	-3.384499762105257	27.35233655826524	12.29468703824648	-12.29468703824648	-27.35233655826524	3.384499762105257	60.68244647688532	69.07115988364649	-60.68244647688532	9.205733675330755	48.13228704371143	-6.243656721729708e-15	0.13089969	0	9.374987811387696	0
8.916700000000001	-2.097710925062261	-45.91001778124679	-11.33974386438384	0	0	0	-16.82213624343511	7.125062951150089	-7.125062951150089	16.82213624343511	-3.406140400723447	27.52722858734677	12.37329980167388	-12.37329980167388	-27.52722858734677	3.406140400723447	61.13171069444954	69.51280388277371	-61.13171069444953	9.501870017625079	45.97169350121044	-6.243656721729708e-15	0.13089969	0	9.374987811387696	0
8.933299999999999	-2.173087346854877	-45.73386290740582	-11.41385344873259	0	0	0	-16.91251504847844	7.163343147319274	-7.163343147319274	16.91251504847844	-3.424440270298415	27.67512169615749	12.43977673625195	-12.43977673625195	-27.67512169615749	3.424440270298415	61.52526269818735	69.88626918225897	-61.52526269818735	9.760533773561066	43.87635949062324	-6.243656721729708e-15	0.13089969	0	9.374987811387696	0
8.949999999999999	-2.249576190213406	-45.54892051426538	-11.46804260064486	0	0	0	-16.97723954472501	7.190757389099551	-7.190757389099551	16.97723954472501	-3.43754566419082	27.78103487969121	12.48738398333293	-12.48738398333293	-27.78103487969121	3.43754566419082	61.82923027143318	70.15372517886314	-61.82923027143318	10.02138444179056	41.95967050505755	-6.243656721729708e-15	0.13089969	0	9.374987811387696	0
8.966699999999999	-2.321818118936552	-45.31606317742625	-11.52554188466566	0	0	0	-17.02244387854988	7.20990381137946	-7.20990381137946	17.02244387854988	-3.446698622263475	27.85500586722387	12.52063343314453	-12.52063343314453	-27.85500586722387	3.446698622263475	62.09771192932954	70.3405195280675	-62.09771192932954	10.26112801743978	40.12692735348742	-6.243656721729708e-15	0.13089969	0	9.374987811387696	0
8.9833	-2.386647692254358	-45.1181789554928	-11.61099506446578	0	0	0	-17.08243519431098	7.235313301300038	-7.235313301300038	17.08243519431098	-3.458845643387869	27.95317381916017	12.56475925192682	-12.56475925192682	-27.95317381916017	3.458845643387869	62.38493587863012	70.58841697146136	-62.38493587863012	10.49336407969663	38.3380501573799	-6.243656721729708e-15	0.13089969	0	9.374987811387696	0
9	-2.411896769150081	-44.92941065463367	-11.66863022224348	0	0	0	-17.16282880111335	7.269364238770033	-7.269364238770033	17.16282880111335	-3.475123713433598	28.08472745535628	12.62389170601641	-12.62389170601641	-28.08472745535628	3.475123713433598	62.57350791270731	70.92062121367009	-62.57350791270731	10.68932773121859	36.60958378774092	-6.243656721729708e-15	0.13089969	0	9.374987811387696	0
9.0167	-2.42172337810729	-44.73703752028523	-11.68930908481429	0	0	0	-17.22918062690777	7.29746774054101	-7.29746774054101	17.22918062690777	-3.488558608457014	28.19330355112674	12.67269591382107	-12.67269591382107	-28.19330355112674	3.488558608457014	62.70583746663673	71.19480169746635	-62.70583746663672	10.9112379347975	34.96576418838445	-6.243656721729708e-15	0.13089969	0	9.374987811387696	0
9.033300000000001	-2.437042904263174	-44.521199943903	-11.74923761520662	0	0	0	-17.28094885670985	7.319394319357856	-7.319394319357856	17.28094885670985	-3.499040621945141	28.27801549702363	12.71077335049579	-12.71077335049579	-28.27801549702363	3.499040621945141	62.81749701755594	71.40871952297407	-62.81749701755592	11.18374855821957	33.43739323757909	-6.243656721729708e-15	0.13089969	0	9.374987811387696	0
9.050000000000001	-2.466069056041748	-44.31544996788242	-11.8265300934397	0	0	0	-17.33142031381678	7.340771646465374	-7.340771646465374	17.33142031381678	-3.509260065340885	28.36060544379457	12.74789696316746	-12.74789696316746	-28.36060544379457	3.509260065340885	62.85093440330204	71.61727879563604	-62.85093440330206	11.51487421028882	32.06429949906785	-6.243656721729708e-15	0.13089969	0	9.374987811387696	0
